<?xml version="1.0" standalone="no"?>
<!DOCTYPE svg PUBLIC "-//W3C//DTD SVG 20010904//EN"
 "http://www.w3.org/TR/2001/REC-SVG-20010904/DTD/svg10.dtd">
<svg version="1.0" xmlns="http://www.w3.org/2000/svg"
 width="192.000000pt" height="192.000000pt" viewBox="0 0 192.000000 192.000000"
 preserveAspectRatio="xMidYMid meet">
<metadata>
Created by potrace 1.14, written by Peter Selinger 2001-2017
</metadata>
<g transform="translate(0.000000,192.000000) scale(0.100000,-0.100000)"
fill="#000000" stroke="none">
<path d="M865 1820 c-3 -5 -1 -10 4 -10 6 0 11 5 11 10 0 6 -2 10 -4 10 -3 0
-8 -4 -11 -10z"/>
<path d="M1016 1818 c3 -5 10 -6 15 -3 13 9 11 12 -6 12 -8 0 -12 -4 -9 -9z"/>
<path d="M1050 1825 c0 -2 8 -9 18 -14 14 -8 19 -6 19 5 0 7 -9 14 -19 14 -10
0 -18 -2 -18 -5z"/>
<path d="M1195 1810 c3 -5 17 -10 30 -10 13 0 27 -4 30 -10 3 -5 10 -10 16
-10 5 0 9 5 9 10 0 6 -3 9 -7 8 -5 -1 -21 4 -36 10 -35 15 -50 15 -42 2z"/>
<path d="M768 1803 c7 -3 16 -2 19 1 4 3 -2 6 -13 5 -11 0 -14 -3 -6 -6z"/>
<path d="M924 1799 c-34 -10 -84 -54 -84 -75 0 -7 -6 -14 -12 -17 -10 -3 -10
-7 -2 -18 6 -8 9 -23 7 -34 -3 -11 -6 -39 -8 -62 -3 -40 -26 -79 -39 -66 -3 4
-6 0 -6 -8 0 -8 -25 -28 -55 -44 -45 -23 -114 -78 -80 -64 37 16 65 33 65 41
0 4 5 8 12 8 6 0 26 12 45 26 19 14 37 23 41 19 4 -4 2 -10 -4 -12 -7 -2 -49
-28 -95 -58 -45 -30 -85 -53 -87 -50 -7 7 -42 -15 -42 -26 0 -6 7 -9 15 -6 8
4 -1 -18 -21 -49 -20 -31 -40 -69 -46 -85 -6 -17 -12 -28 -15 -26 -7 7 30 91
49 111 23 26 23 35 -2 29 -11 -3 -17 -9 -14 -14 3 -5 -3 -21 -14 -37 -11 -15
-22 -38 -25 -52 -3 -14 -9 -36 -13 -50 -7 -23 -6 -24 9 -11 15 12 17 12 12 -1
-3 -8 -7 -34 -8 -59 -2 -25 -7 -51 -12 -59 -11 -17 -13 -60 -3 -54 4 2 4 -10
1 -29 -7 -45 19 -105 52 -117 14 -5 23 -14 20 -20 -3 -5 -8 -10 -11 -10 -3 0
-2 5 1 10 3 6 -3 10 -14 10 -12 0 -21 -5 -21 -11 0 -5 4 -8 9 -4 5 3 12 -3 16
-14 3 -11 13 -25 22 -33 15 -12 15 -11 4 12 -11 23 -11 24 3 6 9 -11 27 -32
41 -48 30 -33 32 -43 6 -26 -11 7 -18 15 -15 19 2 4 -3 9 -11 13 -8 3 -15 2
-15 -2 1 -12 27 -42 37 -42 5 0 26 -17 47 -39 20 -21 55 -43 75 -50 37 -11 69
-36 59 -46 -3 -3 12 -23 33 -44 39 -38 49 -61 28 -61 -6 0 -9 -6 -6 -14 3 -7
-1 -32 -9 -55 -8 -24 -12 -47 -9 -52 4 -5 3 -9 -2 -9 -4 0 -9 -11 -9 -25 -1
-13 -9 -31 -17 -39 -42 -42 58 -162 141 -170 70 -6 138 37 166 105 13 32 13
39 0 65 -9 16 -16 43 -17 60 -1 18 -5 30 -8 28 -4 -2 -9 14 -11 36 -3 35 -1
40 17 40 11 0 26 10 34 22 l14 23 -22 -20 c-19 -16 -24 -17 -31 -5 -7 11 -10
12 -10 2 0 -7 -4 -10 -10 -7 -19 12 -10 40 20 57 16 9 36 32 44 52 9 23 28 42
53 54 21 11 55 34 77 51 21 17 42 29 46 26 4 -3 10 5 13 16 3 12 10 18 16 15
6 -4 8 4 5 20 -3 19 -1 24 8 18 7 -4 10 -4 6 0 -4 5 8 23 27 41 18 19 31 36
28 39 -3 3 0 12 6 20 10 12 9 13 -9 9 -14 -4 -19 -11 -15 -22 3 -8 3 -12 -1
-8 -10 10 -36 -31 -28 -45 4 -6 3 -8 -4 -4 -13 8 -44 -33 -35 -47 3 -6 1 -7
-5 -3 -13 8 18 73 51 108 9 10 17 22 17 28 0 13 47 13 55 0 9 -15 41 -12 59 5
21 22 26 19 26 -15 0 -16 -3 -30 -7 -30 -5 0 -8 -12 -9 -27 0 -16 -4 -36 -8
-45 -6 -13 -4 -18 7 -18 10 0 22 19 32 50 15 45 20 50 46 50 16 0 29 4 29 9 0
5 -6 9 -12 8 -35 -1 -47 4 -42 18 3 8 11 13 17 12 7 -1 11 4 9 11 -1 7 -3 24
-4 37 -1 14 -6 25 -10 25 -10 0 -10 2 2 -39 6 -22 6 -31 0 -25 -5 5 -13 24
-16 42 -6 29 -4 32 19 32 14 0 28 4 31 9 3 4 -5 6 -18 4 -13 -3 -27 0 -30 6
-4 6 -2 11 5 11 8 0 8 4 1 13 -15 18 -3 67 17 67 23 -1 55 -27 42 -34 -12 -8
-3 -35 18 -56 13 -13 14 -12 9 7 -3 13 -2 26 3 29 5 3 9 -4 9 -15 0 -14 5 -19
15 -15 8 4 15 12 15 20 0 8 7 14 15 14 8 0 15 -6 15 -12 0 -9 4 -8 10 2 8 13
10 13 10 -1 0 -9 -9 -19 -21 -22 -12 -3 -19 -12 -17 -19 5 -13 58 -15 107 -4
14 3 30 1 37 -4 16 -14 26 11 10 25 -12 11 -66 12 -83 2 -16 -10 -28 12 -14
26 9 9 11 7 6 -8 -6 -17 -5 -18 7 -5 15 17 43 26 33 10 -3 -5 3 -10 14 -10 29
0 36 18 15 41 -11 12 -21 16 -28 10 -7 -6 -19 -4 -31 5 -19 14 -19 15 8 10 24
-4 28 -2 23 12 -5 15 -5 15 8 0 14 -19 42 -25 31 -8 -3 6 2 10 11 10 10 0 14
3 10 7 -12 12 -136 11 -129 -1 4 -6 -1 -5 -10 3 -14 11 -17 11 -17 0 0 -10 -3
-10 -11 -2 -15 15 -15 109 0 127 11 13 9 13 -13 3 -14 -7 -21 -13 -16 -15 6
-2 10 -8 10 -13 0 -6 -4 -8 -8 -5 -4 2 -8 -6 -8 -19 0 -13 4 -21 8 -19 4 3 8
1 8 -5 0 -5 -6 -12 -12 -14 -10 -4 -10 -6 0 -6 6 -1 12 -5 12 -10 0 -5 -8 -8
-17 -7 -14 2 -18 12 -16 37 1 23 -1 29 -7 18 -5 -8 -7 -24 -6 -35 6 -36 -11
-54 -43 -44 -16 4 -31 6 -34 4 -2 -2 -4 3 -4 11 0 8 6 16 13 19 11 4 10 11 -1
33 -13 25 -13 28 0 31 13 3 13 6 1 24 -8 11 -12 27 -9 34 3 8 0 14 -5 14 -6 0
-22 26 -37 57 -32 70 -71 123 -91 123 -8 0 -13 4 -9 9 3 5 1 12 -4 16 -19 11
-2 -36 24 -67 23 -28 75 -119 75 -133 0 -3 -12 -6 -27 -6 l-28 -1 30 -7 c37
-8 45 -42 18 -74 -16 -19 -16 -20 0 -8 15 12 17 11 18 -15 1 -16 1 -38 0 -49
-1 -11 -2 -48 -3 -82 -1 -35 -7 -63 -12 -63 -6 0 -5 -5 2 -12 13 -13 16 -47 5
-49 -38 -5 -83 -4 -83 2 0 4 -3 15 -7 25 -4 12 -3 15 5 10 12 -7 14 4 15 62 0
13 6 22 15 22 13 0 12 3 -3 13 -10 8 -15 19 -11 25 4 7 4 18 -1 25 -10 17 -13
38 -4 32 5 -2 6 8 3 23 -3 15 -7 21 -9 15 -3 -7 -9 -13 -14 -13 -6 0 -5 9 1
21 8 14 8 29 1 50 -8 23 -7 31 7 40 16 10 16 10 0 5 -12 -3 -18 0 -18 9 0 14
-11 19 -35 16 -11 -1 -35 45 -35 66 0 7 -7 10 -16 6 -12 -4 -15 -2 -12 8 3 8
-9 26 -25 42 -32 29 -47 34 -47 16 0 -5 -4 -7 -10 -4 -5 3 -10 11 -10 16 0 6
5 7 10 4 6 -3 10 -2 10 3 0 13 -29 36 -37 29 -7 -8 -56 17 -73 38 -8 9 -15 24
-16 33 -2 10 -6 31 -9 47 -3 17 -8 48 -9 70 -2 22 -5 40 -6 40 -1 0 -3 8 -5
18 -10 55 -100 95 -171 76z m246 -325 c0 -9 -44 14 -48 25 -3 8 5 7 22 -4 14
-10 26 -19 26 -21z m35 -14 c3 -5 2 -10 -4 -10 -5 0 -13 5 -16 10 -3 6 -2 10
4 10 5 0 13 -4 16 -10z m80 -51 c11 -17 -1 -21 -15 -4 -8 9 -8 15 -2 15 6 0
14 -5 17 -11z m125 -154 c0 -5 -5 -3 -10 5 -5 8 -10 20 -10 25 0 6 5 3 10 -5
5 -8 10 -19 10 -25z m0 -30 c14 9 23 -36 10 -49 -8 -8 -9 -6 -4 8 5 12 2 22
-9 28 -10 5 -17 14 -16 21 0 9 2 9 6 -1 2 -6 8 -10 13 -7z m340 -161 c0 -8
-10 -14 -25 -14 -26 0 -35 25 -12 33 18 6 37 -3 37 -19z m-1243 -131 c-3 -10
-5 -4 -5 12 0 17 2 24 5 18 2 -7 2 -21 0 -30z m933 33 c0 -2 -7 -7 -16 -10 -8
-3 -12 -2 -9 4 6 10 25 14 25 6z m-10 -52 c0 -16 -16 -19 -25 -4 -8 13 4 32
16 25 5 -4 9 -13 9 -21z m-897 -36 c6 -22 5 -22 -8 -4 -17 22 -20 40 -6 32 5
-3 11 -16 14 -28z m777 -145 c0 -16 -148 -123 -170 -123 -8 0 -23 -33 -25 -54
0 -14 -33 -31 -42 -23 -4 5 -3 11 3 15 6 4 18 21 27 38 9 18 29 36 44 42 33
11 143 92 143 104 0 4 5 8 10 8 6 0 10 -3 10 -7z m-622 -59 c20 -20 28 -31 17
-26 -23 11 -73 62 -61 62 4 0 24 -16 44 -36z m87 -44 c3 -6 -1 -7 -9 -4 -18 7
-21 14 -7 14 6 0 13 -4 16 -10z"/>
<path d="M1351 1793 c0 -7 -8 -13 -17 -13 -8 0 -13 -4 -9 -10 3 -5 -15 -7 -47
-3 -38 4 -50 3 -43 -5 6 -6 34 -13 63 -16 56 -5 69 4 59 41 -3 10 -5 12 -6 6z"/>
<path d="M470 1764 c-19 -6 -37 -9 -40 -5 -3 4 -16 4 -30 1 -24 -6 -24 -7 7
-14 29 -7 31 -9 18 -22 -8 -9 -15 -20 -15 -26 0 -6 3 -9 6 -6 3 4 18 2 34 -2
41 -12 73 -2 67 21 -8 29 14 38 83 37 45 -1 65 2 68 12 4 10 -4 12 -31 7 -19
-3 -38 -3 -41 1 -12 11 -40 11 -55 -1 -11 -9 -13 -9 -8 0 9 14 -14 13 -63 -3z"/>
<path d="M1403 1762 c-30 -3 -49 -22 -22 -22 7 0 9 -9 6 -22 -5 -18 0 -26 18
-35 14 -6 25 -7 25 -2 0 5 9 9 20 9 11 0 20 5 20 10 0 6 5 10 11 10 5 0 8 -3
6 -7 -3 -5 -1 -19 4 -32 8 -21 13 -23 52 -17 24 4 55 3 68 -2 33 -12 49 -5 49
24 0 20 -5 24 -30 24 -17 0 -33 -7 -38 -17 -9 -16 -11 -16 -27 0 -9 9 -27 17
-41 17 -14 0 -25 6 -25 15 -1 8 -3 20 -4 25 -1 6 -3 14 -4 19 -1 8 -25 9 -88
3z m82 -12 c3 -5 1 -10 -4 -10 -6 0 -11 5 -11 10 0 6 2 10 4 10 3 0 8 -4 11
-10z"/>
<path d="M1187 1749 c7 -7 15 -10 18 -7 3 3 -2 9 -12 12 -14 6 -15 5 -6 -5z"/>
<path d="M587 1721 c-4 -17 -3 -21 5 -13 5 5 8 16 6 23 -3 8 -7 3 -11 -10z"/>
<path d="M1154 1725 c-7 -18 3 -35 21 -35 7 0 12 8 10 18 -2 9 -4 20 -4 25 -2
13 -21 8 -27 -8z"/>
<path d="M672 1721 c3 -30 -4 -39 -31 -37 -17 1 -28 -2 -25 -6 8 -13 56 -9 86
6 24 13 27 12 31 -2 2 -10 4 -2 4 16 0 34 -11 43 -21 17 -3 -8 -13 -15 -22
-15 -13 0 -14 3 -5 13 8 10 7 14 -4 14 -7 0 -14 -3 -13 -6z"/>
<path d="M1205 1711 c-3 -5 -1 -12 5 -16 5 -3 10 1 10 9 0 18 -6 21 -15 7z"/>
<path d="M238 1705 c-11 -11 5 -53 21 -58 21 -5 53 6 51 18 0 6 13 13 30 16
46 10 55 24 14 24 -18 0 -34 -4 -34 -9 0 -6 -5 -5 -12 2 -12 12 -60 17 -70 7z"/>
<path d="M1243 1688 c-1 -14 4 -18 20 -16 26 4 26 19 0 29 -14 5 -19 2 -20
-13z"/>
<path d="M1300 1705 c0 -2 6 -8 13 -14 10 -8 14 -7 14 2 0 8 -6 14 -14 14 -7
0 -13 -1 -13 -2z"/>
<path d="M1317 1656 c-4 -10 -1 -13 8 -9 8 3 12 9 9 14 -7 12 -11 11 -17 -5z"/>
<path d="M570 1646 c0 -2 7 -7 16 -10 8 -3 12 -2 9 4 -6 10 -25 14 -25 6z"/>
<path d="M1424 1624 c5 -25 4 -26 -32 -21 -25 5 -32 3 -22 -3 8 -5 30 -10 49
-10 29 0 32 2 21 15 -8 10 -9 15 -2 15 6 0 9 7 6 15 -10 25 -25 17 -20 -11z"/>
<path d="M1139 1638 c-6 -19 -5 -38 1 -47 4 -7 7 1 8 18 0 17 -1 31 -4 31 -2
0 -4 -1 -5 -2z"/>
<path d="M401 1616 c-9 -10 -28 -15 -59 -13 l-46 2 -2 -37 c-1 -23 2 -38 9
-38 8 0 7 -4 -1 -12 -7 -7 -12 -17 -12 -22 0 -6 4 -5 9 2 4 7 17 14 29 15 11
0 18 5 16 9 -3 4 0 8 5 8 6 0 11 14 11 30 0 33 11 38 30 15 14 -17 50 -20 50
-5 0 6 7 10 15 10 8 0 15 5 15 10 0 6 -5 10 -12 10 -6 0 -19 7 -28 15 -15 14
-19 14 -29 1z"/>
<path d="M668 1623 c7 -3 16 -2 19 1 4 3 -2 6 -13 5 -11 0 -14 -3 -6 -6z"/>
<path d="M1235 1620 c3 -5 8 -10 11 -10 2 0 4 5 4 10 0 6 -5 10 -11 10 -5 0
-7 -4 -4 -10z"/>
<path d="M1505 1614 c-15 -15 -15 -18 1 -35 9 -11 25 -19 35 -19 10 0 24 -11
31 -25 13 -24 15 -24 36 -9 24 17 29 43 10 62 -20 20 -3 14 22 -8 14 -12 27
-17 34 -11 22 16 55 19 75 4 24 -16 28 -61 9 -82 -11 -11 -10 -13 2 -7 9 5 8
2 -2 -7 -10 -8 -18 -17 -18 -20 0 -4 8 -4 18 0 15 6 14 3 -3 -17 -11 -13 -14
-20 -7 -16 6 4 12 3 12 -2 0 -6 -7 -12 -15 -16 -12 -4 -15 4 -15 39 0 25 -4
45 -10 45 -5 0 -10 5 -10 11 0 5 5 7 12 3 6 -4 8 -3 5 3 -4 6 -20 16 -37 23
-25 10 -33 10 -47 -1 -15 -13 -13 -15 18 -19 34 -5 34 -5 37 -62 2 -32 7 -58
12 -58 6 0 10 -4 10 -10 0 -5 -5 -9 -12 -7 -8 1 -11 -9 -9 -33 3 -39 18 -63
35 -57 20 8 71 -27 71 -48 0 -16 7 -20 35 -22 19 0 41 -2 48 -2 7 -1 12 -14
12 -31 0 -17 -5 -30 -12 -30 -10 0 -10 -2 -1 -8 7 -5 11 -42 10 -112 l-2 -105
-27 0 c-16 1 -28 -3 -28 -7 0 -4 13 -8 29 -8 16 0 32 -6 34 -12 3 -7 6 16 7
52 3 107 -1 263 -6 272 -3 4 -21 8 -39 8 -29 0 -36 4 -41 27 -5 17 -3 28 4 31
7 2 12 10 12 18 0 10 5 12 13 8 8 -5 8 -3 -2 9 -7 9 -11 27 -9 40 4 21 1 24
-27 24 -26 0 -32 -4 -31 -21 1 -15 -7 -23 -24 -27 l-25 -7 26 -1 c14 0 34 6
45 15 16 13 16 15 2 10 -10 -3 -18 -2 -18 3 0 13 11 20 26 14 17 -6 19 -43 2
-43 -9 0 -8 -4 2 -10 12 -8 12 -10 -5 -11 -11 0 -29 -2 -39 -4 -11 -2 -27 0
-37 6 -12 6 -19 5 -22 -4 -3 -7 -6 -6 -6 5 -1 9 5 19 12 21 10 4 10 6 0 6 -7
1 -13 5 -13 10 0 5 14 7 30 5 17 -3 30 -1 30 4 0 16 -27 21 -39 9 -9 -9 -11
-8 -5 6 4 11 14 17 24 14 9 -2 25 2 35 9 16 12 17 14 2 14 -10 0 -14 5 -11 14
3 8 14 12 27 9 16 -3 18 -2 9 5 -8 5 -13 12 -13 16 3 18 0 20 -9 6 -7 -11 -10
-7 -10 18 0 19 4 31 10 27 9 -6 -16 64 -28 77 -4 4 -19 9 -34 12 -14 2 -35 9
-46 15 -11 6 -22 8 -25 4 -15 -14 -85 -13 -100 2 -20 19 -32 19 -52 -1z m70
-34 c-3 -5 -11 -10 -16 -10 -6 0 -7 5 -4 10 3 6 11 10 16 10 6 0 7 -4 4 -10z"/>
<path d="M235 1610 c-3 -5 -21 -10 -40 -10 -37 0 -64 -21 -66 -51 -2 -26 -6
-77 -8 -89 0 -5 -7 -9 -14 -7 -6 1 -11 -6 -9 -15 2 -10 -2 -18 -8 -18 -5 0
-10 -7 -10 -15 0 -8 -5 -15 -11 -15 -5 0 -7 -4 -4 -10 11 -18 14 -50 5 -55 -5
-3 -7 -26 -3 -50 l6 -44 -34 -3 -34 -3 -3 -162 c-2 -100 1 -163 7 -163 5 0 8
11 6 25 -1 17 3 25 14 26 14 0 14 1 1 7 -12 5 -15 27 -16 95 -1 88 2 94 39 88
5 -1 6 3 3 8 -3 5 -15 7 -26 4 -22 -6 -27 15 -10 46 7 14 18 17 50 14 36 -4
40 -2 40 19 0 34 11 46 45 50 23 2 31 8 33 28 2 20 1 22 -7 9 -6 -10 -21 -15
-38 -13 -15 1 -35 2 -43 3 -21 1 -15 101 7 101 8 0 11 5 8 10 -3 6 -1 10 4 10
15 0 14 -16 -3 -33 -11 -11 -12 -17 -3 -27 9 -10 9 -14 -1 -17 -14 -5 -6 -23
10 -23 6 0 8 3 5 7 -11 10 13 32 29 26 8 -3 14 0 14 7 0 7 -8 10 -20 7 -11 -3
-20 -1 -20 4 0 5 11 9 25 9 18 0 25 -5 25 -19 0 -10 7 -32 15 -47 l15 -29 0
28 c0 15 -4 27 -10 27 -5 0 -10 8 -10 18 0 14 2 15 10 2 8 -13 10 -12 10 3 0
9 -6 17 -12 17 -10 0 -10 2 -2 8 7 4 12 33 13 67 l0 59 -26 -28 c-24 -26 -27
-27 -39 -12 -13 19 -10 56 7 89 9 16 17 18 47 12 68 -13 77 -11 80 13 3 16 -2
22 -17 22 -11 0 -23 -4 -26 -10z m-48 -153 c-10 -22 -37 -33 -37 -15 0 4 5 8
11 8 5 0 8 4 4 9 -3 5 3 12 12 14 10 3 19 5 20 6 0 0 -4 -9 -10 -22z m-37 9
c0 -3 -4 -8 -10 -11 -5 -3 -10 -1 -10 4 0 6 5 11 10 11 6 0 10 -2 10 -4z m47
-48 c-3 -7 -5 -2 -5 12 0 14 2 19 5 13 2 -7 2 -19 0 -25z"/>
<path d="M575 1610 c-3 -5 -2 -10 4 -10 5 0 13 5 16 10 3 6 2 10 -4 10 -5 0
-13 -4 -16 -10z"/>
<path d="M715 1600 c-3 -6 1 -7 9 -4 9 3 16 1 16 -5 0 -6 -7 -11 -15 -11 -8 0
-15 -5 -15 -11 0 -5 5 -7 10 -4 6 3 10 -1 10 -9 0 -9 5 -16 11 -16 6 0 9 7 6
15 -4 8 -2 17 3 20 13 8 1 35 -15 35 -8 0 -17 -4 -20 -10z"/>
<path d="M1186 1601 c-4 -6 0 -11 8 -11 9 0 16 -5 16 -11 0 -5 -4 -8 -9 -5
-11 7 -9 -21 2 -29 4 -3 5 -2 2 2 -3 3 0 12 7 20 9 11 8 18 -4 29 -11 11 -18
12 -22 5z"/>
<path d="M1271 1594 c0 -11 3 -14 6 -6 3 7 2 16 -1 19 -3 4 -6 -2 -5 -13z"/>
<path d="M1465 1600 c-3 -5 -1 -10 4 -10 6 0 11 5 11 10 0 6 -2 10 -4 10 -3 0
-8 -4 -11 -10z"/>
<path d="M535 1578 c19 -15 23 -23 15 -33 -6 -7 -8 -20 -4 -29 7 -18 -39 -41
-59 -30 -9 5 -9 4 -1 -5 8 -8 1 -22 -25 -50 -20 -22 -54 -75 -76 -120 -31 -65
-43 -80 -57 -75 -10 3 -18 1 -18 -5 0 -6 7 -11 16 -11 9 0 14 -8 13 -17 -1
-10 0 -20 1 -23 1 -3 3 -16 6 -30 3 -19 2 -21 -6 -10 -8 13 -10 13 -10 -2 0
-9 6 -19 13 -21 10 -4 10 -6 0 -6 -7 -1 -13 -8 -13 -16 0 -8 -9 -15 -20 -15
-11 0 -20 -4 -20 -9 0 -6 9 -8 20 -6 16 3 20 -2 20 -21 0 -21 -4 -23 -24 -18
-13 3 -27 1 -30 -5 -6 -10 13 -13 62 -11 9 1 20 -71 12 -85 -3 -5 -8 8 -12 30
-6 37 -6 36 -5 -13 1 -28 -1 -52 -5 -52 -5 0 -8 5 -8 11 0 5 -4 8 -9 4 -5 -3
1 -17 15 -32 26 -28 84 -144 84 -168 0 -8 6 -15 13 -15 6 0 21 -14 32 -30 11
-16 24 -30 29 -30 10 0 46 -40 46 -52 0 -12 -14 -10 -29 5 -8 6 -11 7 -8 1 4
-6 -5 -22 -18 -34 -14 -13 -25 -28 -25 -34 0 -6 5 -3 11 7 5 9 19 17 29 17 13
0 18 5 14 15 -4 10 -2 14 7 10 8 -3 20 -1 28 4 12 7 5 19 -30 59 -25 27 -61
83 -81 123 -49 102 -53 115 -31 128 10 6 13 11 6 11 -19 0 -35 61 -37 138 -1
53 2 72 12 72 7 0 10 5 7 10 -3 6 1 10 9 10 8 0 18 5 22 12 5 8 2 9 -9 5 -57
-23 -54 -24 -34 6 9 15 14 27 9 27 -4 0 -8 9 -9 20 -2 23 1 24 30 9 22 -11 22
-11 0 10 -25 24 -28 36 -13 46 6 3 10 13 10 22 0 9 26 55 58 102 54 82 95 126
116 126 5 0 11 6 14 13 2 6 -1 12 -7 12 -6 0 -11 9 -11 20 0 11 -5 20 -11 20
-6 0 -9 6 -6 13 3 7 -5 13 -19 13 l-24 2 25 -20z"/>
<path d="M1312 1588 c-7 -7 -12 -19 -12 -27 0 -8 3 -11 7 -8 3 4 13 1 22 -5
12 -10 12 -8 -1 8 -14 16 -15 23 -6 32 7 7 10 12 7 12 -3 0 -10 -5 -17 -12z"/>
<path d="M1356 1565 c4 -8 8 -15 10 -15 2 0 4 7 4 15 0 8 -4 15 -10 15 -5 0
-7 -7 -4 -15z"/>
<path d="M1140 1566 c0 -2 8 -10 18 -17 15 -13 16 -12 3 4 -13 16 -21 21 -21
13z"/>
<path d="M1295 1529 c11 -13 21 -26 22 -28 2 -2 3 3 3 12 0 9 -10 22 -22 28
l-23 12 20 -24z"/>
<path d="M224 1529 c-7 -12 12 -29 32 -29 14 0 26 25 17 34 -10 10 -41 7 -49
-5z"/>
<path d="M1187 1529 c7 -7 15 -10 18 -7 3 3 -2 9 -12 12 -14 6 -15 5 -6 -5z"/>
<path d="M1251 1530 c-16 -9 -6 -30 15 -30 15 0 20 25 6 34 -4 2 -14 1 -21 -4z"/>
<path d="M1500 1536 c0 -2 8 -10 18 -17 15 -13 16 -12 3 4 -13 16 -21 21 -21
13z"/>
<path d="M665 1520 c-4 -6 -15 -8 -26 -5 -11 4 -19 2 -19 -5 0 -6 5 -8 12 -4
8 5 9 2 5 -9 -3 -10 -2 -17 2 -17 5 0 11 6 14 14 4 10 16 13 41 9 29 -4 36 -1
36 12 0 15 -2 16 -17 4 -13 -11 -17 -11 -20 -1 -6 15 -20 16 -28 2z"/>
<path d="M1353 1514 c16 -18 18 -18 35 1 9 11 11 14 3 8 -10 -9 -20 -9 -35 -1
-20 10 -20 10 -3 -8z"/>
<path d="M1480 1521 c0 -10 19 -25 25 -20 1 2 -3 10 -11 17 -8 7 -14 8 -14 3z"/>
<path d="M380 1500 c0 -5 7 -10 16 -10 8 0 12 5 9 10 -3 6 -10 10 -16 10 -5 0
-9 -4 -9 -10z"/>
<path d="M1330 1500 c0 -5 5 -10 11 -10 5 0 7 5 4 10 -3 6 -8 10 -11 10 -2 0
-4 -4 -4 -10z"/>
<path d="M587 1485 c-15 -11 -16 -15 -4 -22 8 -4 16 -15 19 -23 3 -9 7 -10 11
-3 4 6 0 18 -8 26 -11 12 -12 16 -2 20 6 2 10 7 7 10 -3 3 -13 -1 -23 -8z"/>
<path d="M252 1481 c-11 -7 -10 -10 3 -15 22 -8 22 -8 22 9 0 17 -6 18 -25 6z"/>
<path d="M1366 1481 c-12 -5 -15 -10 -9 -14 6 -4 16 0 23 8 14 17 13 17 -14 6z"/>
<path d="M1310 1475 c0 -3 9 -14 20 -25 11 -11 20 -16 20 -11 0 5 -7 17 -16
25 -16 16 -24 20 -24 11z"/>
<path d="M540 1425 c-13 -14 -21 -28 -18 -31 4 -3 14 6 23 20 10 14 21 23 26
20 5 -3 9 0 9 5 0 18 -15 12 -40 -14z"/>
<path d="M1376 1440 c-15 -5 -16 -9 -7 -14 7 -5 18 -3 24 3 14 14 6 20 -17 11z"/>
<path d="M270 1405 c-12 -22 -11 -27 6 -40 10 -8 27 -12 37 -9 10 3 20 -1 23
-10 3 -9 13 -16 22 -16 12 0 11 5 -6 23 -12 13 -22 31 -22 40 0 13 -27 37 -43
37 -2 0 -10 -11 -17 -25z"/>
<path d="M1580 1380 c0 -27 5 -43 15 -46 13 -5 13 -9 3 -23 -12 -14 -11 -15 5
-2 10 8 14 18 9 25 -4 6 -7 28 -7 49 1 25 -3 37 -12 37 -9 0 -13 -13 -13 -40z"/>
<path d="M1421 1344 c0 -11 3 -14 6 -6 3 7 2 16 -1 19 -3 4 -6 -2 -5 -13z"/>
<path d="M476 1343 c-11 -11 -6 -23 9 -23 8 0 15 4 15 9 0 13 -16 22 -24 14z"/>
<path d="M1437 1330 c-4 -16 0 -20 16 -19 12 0 16 3 9 6 -6 2 -10 9 -7 13 3 5
1 11 -4 14 -5 3 -11 -3 -14 -14z"/>
<path d="M1546 1307 c3 -10 9 -15 12 -12 3 3 0 11 -7 18 -10 9 -11 8 -5 -6z"/>
<path d="M240 1300 c0 -5 5 -10 11 -10 5 0 7 5 4 10 -3 6 -8 10 -11 10 -2 0
-4 -4 -4 -10z"/>
<path d="M1590 1281 c0 -6 4 -13 10 -16 6 -3 7 1 4 9 -7 18 -14 21 -14 7z"/>
<path d="M1670 1276 c0 -9 5 -16 10 -16 6 0 10 4 10 9 0 6 -4 13 -10 16 -5 3
-10 -1 -10 -9z"/>
<path d="M190 1272 c-19 -2 -41 -8 -47 -14 -15 -12 -17 -38 -4 -38 5 0 8 8 7
18 -1 14 7 17 44 17 25 0 50 3 55 7 19 12 48 -19 41 -45 -6 -25 17 -57 31 -43
3 3 2 6 -3 6 -11 0 -12 60 -1 78 5 8 2 13 -10 14 -34 3 -78 3 -113 0z"/>
<path d="M450 1266 c0 -10 6 -13 15 -10 9 4 15 0 15 -10 0 -9 5 -16 11 -16 6
0 9 7 5 15 -3 8 -1 15 4 15 6 0 10 5 10 12 0 9 -3 9 -12 0 -7 -7 -17 -8 -30
-1 -14 7 -18 6 -18 -5z"/>
<path d="M420 1259 c0 -5 5 -7 10 -4 6 3 10 8 10 11 0 2 -4 4 -10 4 -5 0 -10
-5 -10 -11z"/>
<path d="M1500 1236 c0 -8 4 -17 8 -20 4 -2 8 4 8 15 0 10 -4 19 -8 19 -4 0
-8 -6 -8 -14z"/>
<path d="M1735 1240 c3 -5 8 -10 11 -10 2 0 4 5 4 10 0 6 -5 10 -11 10 -5 0
-7 -4 -4 -10z"/>
<path d="M1600 1216 c0 -2 11 -6 25 -8 13 -3 22 -1 19 3 -5 9 -44 13 -44 5z"/>
<path d="M155 1200 c-3 -6 1 -7 9 -4 18 7 21 14 7 14 -6 0 -13 -4 -16 -10z"/>
<path d="M224 1196 c-10 -8 -16 -18 -11 -22 4 -4 7 -2 7 6 0 10 3 10 14 1 11
-9 16 -9 21 -1 12 20 -10 31 -31 16z"/>
<path d="M406 1165 c-3 -8 -1 -15 4 -15 6 0 10 7 10 15 0 8 -2 15 -4 15 -2 0
-6 -7 -10 -15z"/>
<path d="M455 1160 c-3 -5 -1 -10 4 -10 6 0 11 5 11 10 0 6 -2 10 -4 10 -3 0
-8 -4 -11 -10z"/>
<path d="M1591 1167 c2 -1 12 -9 22 -16 14 -12 17 -11 17 3 0 10 -8 16 -22 16
-12 0 -19 -1 -17 -3z"/>
<path d="M137 1143 c3 -7 9 -11 13 -8 5 3 11 -1 13 -7 3 -8 6 -6 6 5 1 10 5
16 11 12 16 -10 -1 -37 -21 -32 -17 5 -23 -4 -20 -25 0 -4 -7 -4 -16 -1 -11 4
-13 8 -5 11 7 2 12 10 12 18 0 20 -69 19 -76 -1 -4 -8 -11 -12 -18 -9 -6 3 0
-4 13 -15 23 -21 23 -21 2 -21 -23 0 -26 -11 -11 -41 7 -13 7 -19 0 -19 -5 0
-10 -5 -10 -10 0 -6 11 -8 24 -6 16 3 27 -1 30 -11 9 -21 8 -23 -8 -17 -8 3
-17 1 -21 -5 -4 -7 8 -11 34 -11 23 0 41 5 41 11 0 6 -7 9 -14 6 -10 -4 -13
-1 -10 7 3 8 15 11 32 8 15 -3 21 -7 15 -9 -21 -7 -15 -23 8 -23 11 0 18 4 14
10 -8 12 16 50 32 50 7 0 13 -8 14 -17 0 -14 2 -15 6 -3 4 8 13 20 21 26 11 8
6 11 -24 12 -23 1 -46 -5 -58 -16 -20 -16 -20 -16 -7 1 13 16 8 22 -13 18 -5
-1 -4 4 2 11 6 8 9 24 5 37 -5 20 -3 21 20 16 33 -9 69 3 61 18 -5 9 -4 9 6 0
13 -12 4 -37 -11 -28 -5 4 -9 1 -9 -4 0 -12 -27 -10 -47 2 -9 6 -11 3 -7 -8 4
-9 13 -14 21 -11 7 3 16 -1 19 -9 4 -9 19 -15 36 -15 16 0 27 4 23 9 -3 5 -1
12 5 16 7 4 5 14 -5 28 -18 25 -20 41 -3 31 7 -4 8 -3 4 4 -7 12 -37 5 -47
-11 -4 -5 -10 0 -14 12 -3 11 -9 21 -13 22 -45 7 -60 5 -55 -8z m-25 -70 c-10
-4 -9 -10 5 -25 18 -20 18 -21 -4 -7 -18 11 -25 11 -35 1 -16 -16 -25 -15 -32
3 -3 8 -2 14 2 14 20 -3 43 2 38 9 -2 4 5 8 17 9 12 0 16 -1 9 -4z m123 -13
c3 -5 1 -10 -4 -10 -6 0 -11 5 -11 10 0 6 2 10 4 10 3 0 8 -4 11 -10z"/>
<path d="M285 1121 c0 -16 3 -27 7 -24 11 6 10 53 0 53 -4 0 -8 -13 -7 -29z"/>
<path d="M441 1123 c0 -7 -8 -13 -16 -13 -8 0 -15 -4 -15 -8 0 -5 14 -9 30 -9
17 0 30 4 30 9 0 5 -4 7 -9 3 -5 -3 -12 3 -14 12 -3 10 -5 12 -6 6z"/>
<path d="M427 1083 c-13 -12 -7 -23 12 -23 11 0 23 5 27 12 4 7 3 8 -4 4 -7
-4 -12 -2 -12 3 0 12 -13 14 -23 4z"/>
<path d="M1478 1063 c7 -3 16 -2 19 1 4 3 -2 6 -13 5 -11 0 -14 -3 -6 -6z"/>
<path d="M178 1043 c7 -3 16 -2 19 1 4 3 -2 6 -13 5 -11 0 -14 -3 -6 -6z"/>
<path d="M386 1035 c4 -8 13 -15 21 -15 13 0 13 3 3 15 -7 8 -16 15 -21 15 -5
0 -6 -7 -3 -15z"/>
<path d="M460 1041 c0 -7 -4 -10 -9 -6 -5 3 -12 1 -16 -5 -3 -5 1 -10 9 -10
17 0 31 18 22 27 -3 4 -6 1 -6 -6z"/>
<path d="M1575 1040 c-3 -5 -1 -10 4 -10 6 0 11 5 11 10 0 6 -2 10 -4 10 -3 0
-8 -4 -11 -10z"/>
<path d="M1499 1017 c6 -8 7 -18 3 -22 -4 -5 -2 -5 5 -1 14 8 6 36 -9 36 -7 0
-6 -5 1 -13z"/>
<path d="M1630 993 c0 -7 5 -15 10 -18 15 -9 12 -29 -9 -51 -18 -20 -18 -20
20 -19 21 0 42 5 46 10 4 4 1 6 -8 2 -20 -7 -39 10 -32 29 2 7 -2 23 -11 36
-9 12 -16 17 -16 11z"/>
<path d="M287 961 c-4 -15 -11 -19 -35 -15 -37 6 -47 -6 -26 -32 9 -10 13 -13
9 -6 -5 9 3 12 29 9 20 -3 39 0 43 6 3 6 1 7 -5 3 -7 -4 -12 -1 -12 9 0 9 4
14 9 11 5 -4 7 3 4 14 -7 25 -9 25 -16 1z"/>
<path d="M1670 969 c0 -6 6 -17 14 -24 12 -12 15 -12 19 -1 5 14 -10 36 -25
36 -4 0 -8 -5 -8 -11z"/>
<path d="M200 960 c-13 -8 -13 -10 2 -10 9 0 20 5 23 10 8 13 -5 13 -25 0z"/>
<path d="M244 962 c4 -3 14 -7 22 -8 9 -1 13 0 10 4 -4 3 -14 7 -22 8 -9 1
-13 0 -10 -4z"/>
<path d="M1780 960 c-8 -5 -10 -10 -4 -10 7 0 9 -11 6 -25 -4 -25 11 -35 23
-15 3 6 1 10 -5 10 -6 0 -8 11 -6 25 3 14 4 25 3 25 -1 0 -9 -5 -17 -10z"/>
<path d="M1810 945 c0 -8 4 -15 8 -15 5 0 9 7 9 15 0 8 -4 15 -9 15 -4 0 -8
-7 -8 -15z"/>
<path d="M1860 944 c0 -8 5 -12 10 -9 6 4 8 11 5 16 -9 14 -15 11 -15 -7z"/>
<path d="M39 923 c-12 -14 -12 -16 0 -8 11 6 13 4 8 -7 -5 -14 -2 -14 19 -3
32 16 35 27 8 31 -12 2 -28 -4 -35 -13z"/>
<path d="M407 920 c10 -11 21 -20 25 -20 4 0 0 9 -9 20 -10 11 -21 20 -25 20
-4 0 0 -9 9 -20z"/>
<path d="M466 917 c3 -10 9 -15 12 -12 3 3 0 11 -7 18 -10 9 -11 8 -5 -6z"/>
<path d="M1718 913 c6 -2 12 -12 12 -20 0 -13 3 -13 15 -3 13 11 13 15 3 21
-7 5 -20 8 -28 8 -10 0 -11 -2 -2 -6z"/>
<path d="M93 879 c-13 -5 -23 -14 -23 -20 0 -9 -3 -9 -14 0 -11 9 -15 8 -20
-4 -3 -9 -2 -13 3 -10 5 3 16 -4 24 -15 12 -18 15 -18 20 -5 5 10 20 15 51 15
37 0 45 -3 43 -18 0 -10 -10 -19 -21 -20 -17 -1 -18 1 -6 8 12 7 10 9 -7 7
-18 -1 -20 -4 -11 -20 7 -14 7 -17 -1 -13 -7 5 -11 -2 -12 -16 0 -15 -3 -18
-6 -8 -11 26 -36 46 -41 32 -2 -7 -9 -9 -14 -6 -7 4 -8 2 -4 -4 4 -6 13 -9 21
-6 17 7 55 -71 55 -113 0 -24 4 -28 30 -28 33 -1 36 4 18 25 -11 12 -10 12 4
1 17 -13 21 -54 4 -44 -5 4 -6 -6 -2 -23 15 -66 13 -83 -8 -86 -29 -4 -34 -38
-6 -38 12 0 31 -5 42 -11 18 -10 25 -8 39 10 22 26 16 47 -15 55 -21 5 -23 12
-25 73 -1 38 -6 69 -12 71 -5 2 -9 13 -8 25 0 21 1 21 9 2 7 -16 9 -13 9 17 1
28 5 36 15 32 30 -11 118 -9 135 3 14 11 10 13 -24 14 -22 1 -46 0 -54 -1 -9
-1 -12 4 -8 14 4 9 2 16 -3 16 -6 0 -10 -6 -10 -14 0 -14 -34 -28 -44 -18 -3
3 -6 17 -7 31 l-1 26 -8 -25 -8 -25 -1 27 c-1 14 3 28 8 30 5 2 11 16 13 33 2
23 -1 30 -17 32 -15 2 -16 1 -4 -5 11 -5 13 -14 8 -32 -4 -16 -7 -19 -8 -7 -1
9 -7 18 -13 19 -7 0 -18 2 -24 2 -6 1 -18 6 -25 12 -9 8 -22 9 -36 3z m85
-121 c-2 -13 -7 -26 -13 -30 -6 -5 -5 -8 3 -8 6 0 12 -4 12 -10 0 -14 -43 -6
-48 10 -3 7 0 10 6 6 6 -4 16 3 22 14 11 20 10 21 -9 10 -17 -9 -21 -8 -21 5
0 9 4 14 9 10 5 -3 12 -1 16 5 11 18 26 10 23 -12z m-25 -88 c-3 -12 -8 -19
-11 -16 -5 6 5 36 12 36 2 0 2 -9 -1 -20z"/>
<path d="M1801 877 c-6 -8 -7 -17 -3 -22 4 -4 -2 -3 -14 3 -20 11 -48 11 -59
0 -3 -3 5 -5 17 -4 13 1 24 -3 26 -9 1 -5 -7 -11 -18 -11 -11 -1 -26 -2 -34
-3 -21 -2 -26 -70 -7 -81 14 -8 14 -9 0 -15 -11 -4 -14 -15 -11 -35 2 -17 8
-30 12 -30 14 0 -14 -49 -30 -54 -8 -2 -3 -4 13 -5 15 0 27 -6 27 -12 0 -5 -5
-7 -11 -4 -6 4 -10 1 -8 -6 5 -43 -2 -58 -33 -65 -18 -5 -37 -9 -43 -9 -17 -1
-76 -27 -71 -32 2 -2 18 3 35 11 29 15 32 15 51 -4 11 -11 20 -24 20 -30 0 -5
11 -10 25 -10 14 0 25 5 25 10 0 6 8 10 18 10 10 0 21 3 25 6 9 9 -4 34 -18
34 -30 0 -27 52 4 78 9 8 10 11 4 7 -8 -4 -13 0 -13 10 0 10 5 13 13 9 8 -5 7
-2 -2 9 -8 10 -11 20 -7 24 3 3 6 0 6 -7 0 -7 3 -10 6 -7 4 3 16 1 28 -5 17
-9 19 -8 9 3 -7 7 -13 22 -12 34 0 20 0 20 9 0 8 -18 9 -18 9 5 1 19 3 22 11
10 5 -8 12 -11 16 -8 3 4 -1 14 -10 23 -22 22 -20 34 7 45 17 7 11 9 -28 8
-27 0 -40 -3 -27 -5 21 -4 32 -33 13 -33 -23 0 -41 14 -41 30 0 10 -6 21 -12
23 -7 3 4 4 24 3 21 -1 43 2 50 7 9 6 8 7 -4 3 -10 -3 -18 -1 -18 3 0 5 -9 7
-20 4 -13 -4 -20 0 -20 9 0 20 67 23 85 4 8 -8 15 -19 15 -25 0 -6 3 -11 8
-11 4 0 5 29 4 65 -4 66 -16 81 -41 52z m-46 -204 c5 -18 3 -22 -9 -17 -9 3
-13 10 -10 15 3 5 -3 10 -13 10 -17 1 -17 2 0 6 10 3 14 10 11 16 -5 8 -4 9 3
2 6 -5 14 -20 18 -32z m35 27 c0 -5 -5 -10 -11 -10 -5 0 -7 5 -4 10 3 6 8 10
11 10 2 0 4 -4 4 -10z m-73 -72 c-3 -8 -6 -5 -6 6 -1 11 2 17 5 13 3 -3 4 -12
1 -19z"/>
<path d="M1650 853 c0 -7 -5 -13 -12 -13 -6 0 -9 -2 -6 -5 5 -6 58 17 58 25 0
3 -9 6 -20 6 -11 0 -20 -6 -20 -13z"/>
<path d="M1855 860 c-3 -5 -1 -10 4 -10 6 0 11 5 11 10 0 6 -2 10 -4 10 -3 0
-8 -4 -11 -10z"/>
<path d="M1480 851 c0 -6 4 -13 10 -16 6 -3 7 1 4 9 -7 18 -14 21 -14 7z"/>
<path d="M495 830 c-6 -9 11 -50 21 -50 2 0 1 8 -4 18 -5 9 -7 23 -5 30 5 14
-3 16 -12 2z"/>
<path d="M1585 830 c-3 -5 -2 -10 4 -10 5 0 13 5 16 10 3 6 2 10 -4 10 -5 0
-13 -4 -16 -10z"/>
<path d="M100 805 c0 -8 4 -15 10 -15 5 0 7 7 4 15 -4 8 -8 15 -10 15 -2 0 -4
-7 -4 -15z"/>
<path d="M1395 770 c-8 -13 -1 -24 14 -19 6 3 7 10 2 18 -6 10 -10 10 -16 1z"/>
<path d="M503 735 c0 -11 4 -12 14 -4 7 6 13 13 13 15 0 2 -6 4 -13 4 -8 0
-14 -7 -14 -15z"/>
<path d="M541 744 c-1 -18 26 -37 34 -24 3 5 0 10 -9 10 -8 0 -17 6 -19 13 -4
7 -6 8 -6 1z"/>
<path d="M1375 730 c-16 -7 -17 -9 -3 -9 9 -1 20 4 23 9 7 11 7 11 -20 0z"/>
<path d="M1435 730 c3 -5 10 -10 16 -10 5 0 9 5 9 10 0 6 -7 10 -16 10 -8 0
-12 -4 -9 -10z"/>
<path d="M1455 674 c-22 -36 -45 -62 -52 -60 -7 3 -10 -1 -6 -10 7 -19 8 -19
48 24 28 30 62 99 52 108 -1 1 -20 -27 -42 -62z"/>
<path d="M1590 733 c-15 -6 -30 -23 -30 -35 0 -3 14 0 31 9 28 14 32 14 50 -3
10 -9 19 -13 19 -7 0 12 -33 43 -46 42 -5 0 -16 -3 -24 -6z"/>
<path d="M101 704 c0 -11 3 -14 6 -6 3 7 2 16 -1 19 -3 4 -6 -2 -5 -13z"/>
<path d="M533 658 c14 -18 22 -39 19 -47 -3 -8 0 -11 7 -7 6 4 14 1 17 -8 3
-8 19 -19 35 -25 16 -5 28 -15 27 -22 -4 -17 29 -19 43 -3 10 12 9 13 -5 8
-11 -4 -27 3 -45 20 -15 14 -30 23 -34 19 -4 -3 -7 -2 -7 3 0 5 -14 25 -30 44
-16 19 -30 38 -30 43 0 4 -5 7 -11 7 -5 0 1 -15 14 -32z"/>
<path d="M1376 677 c3 -9 -8 -29 -26 -47 -17 -18 -29 -34 -26 -37 8 -8 66 56
66 72 0 8 -4 17 -10 20 -5 3 -7 0 -4 -8z"/>
<path d="M1405 680 c-3 -5 -1 -10 4 -10 6 0 11 5 11 10 0 6 -2 10 -4 10 -3 0
-8 -4 -11 -10z"/>
<path d="M1569 639 l-16 -51 21 25 c12 14 31 30 43 36 27 14 20 41 -11 41 -17
0 -24 -11 -37 -51z"/>
<path d="M84 668 c-4 -7 -3 -8 4 -4 7 4 12 2 12 -3 0 -6 4 -11 8 -11 5 0 9 7
9 15 0 18 -23 20 -33 3z"/>
<path d="M261 658 c-5 -14 -4 -31 2 -43 6 -11 10 -23 9 -27 -1 -5 5 -8 14 -8
8 0 12 5 9 10 -5 8 37 15 66 12 4 -1 4 8 1 20 -4 18 -2 20 16 16 12 -4 20 -2
16 3 -3 5 -12 9 -20 9 -8 0 -14 7 -14 15 0 11 -12 15 -45 15 -38 0 -47 -4 -54
-22z"/>
<path d="M575 660 c3 -5 8 -10 11 -10 2 0 4 5 4 10 0 6 -5 10 -11 10 -5 0 -7
-4 -4 -10z"/>
<path d="M1316 642 l-19 -27 29 25 c16 14 31 26 33 28 2 1 -2 2 -10 2 -8 0
-23 -13 -33 -28z"/>
<path d="M600 636 c0 -2 8 -10 18 -17 15 -13 16 -12 3 4 -13 16 -21 21 -21 13z"/>
<path d="M700 595 c7 -8 17 -15 22 -15 5 0 3 7 -6 15 -8 8 -18 15 -22 15 -3 0
-1 -7 6 -15z"/>
<path d="M740 602 c0 -4 10 -13 23 -21 22 -14 22 -14 3 8 -20 22 -26 25 -26
13z"/>
<path d="M1253 603 c-7 -2 -13 -10 -13 -16 0 -6 -7 -18 -16 -28 -9 -10 -11
-19 -6 -23 6 -3 19 12 31 34 11 22 20 40 18 39 -1 0 -8 -3 -14 -6z"/>
<path d="M1286 591 c-13 -15 -14 -20 -4 -24 9 -3 8 -9 -7 -21 -11 -8 -17 -16
-13 -16 4 0 20 12 35 27 17 16 21 24 11 20 -21 -7 -23 4 -6 21 7 7 10 12 7 12
-3 0 -14 -9 -23 -19z"/>
<path d="M1611 594 c0 -11 3 -14 6 -6 3 7 2 16 -1 19 -3 4 -6 -2 -5 -13z"/>
<path d="M645 590 c3 -5 11 -10 16 -10 6 0 7 5 4 10 -3 6 -11 10 -16 10 -6 0
-7 -4 -4 -10z"/>
<path d="M1362 591 c2 -7 7 -12 11 -12 12 1 9 15 -3 20 -7 2 -11 -2 -8 -8z"/>
<path d="M561 580 c-1 -18 7 -30 34 -50 18 -13 18 -12 -1 10 -12 14 -24 32
-27 40 -5 13 -5 13 -6 0z"/>
<path d="M348 555 c-3 -14 -1 -25 3 -25 5 0 9 11 9 25 0 14 -2 25 -4 25 -2 0
-6 -11 -8 -25z"/>
<path d="M276 563 c-15 -4 -16 -7 -5 -14 8 -4 14 -14 15 -21 0 -7 2 -21 2 -30
2 -15 11 -18 50 -16 47 1 47 1 7 5 -45 5 -55 15 -50 55 2 15 3 27 2 27 -1 -1
-11 -4 -21 -6z"/>
<path d="M1413 559 c1 -6 19 -28 39 -49 27 -29 42 -38 55 -33 16 6 15 8 -6 13
-14 3 -31 19 -40 37 -14 29 -53 54 -48 32z"/>
<path d="M534 546 c-8 -22 -2 -27 16 -16 12 7 12 12 3 21 -10 10 -14 9 -19 -5z"/>
<path d="M1350 540 c0 -5 5 -10 10 -10 6 0 10 5 10 10 0 6 -4 10 -10 10 -5 0
-10 -4 -10 -10z"/>
<path d="M1276 522 c-2 -4 0 -14 6 -22 8 -12 9 -12 5 2 -3 9 -1 19 6 22 9 3 9
5 0 5 -6 1 -14 -3 -17 -7z"/>
<path d="M595 500 c-3 -6 1 -7 9 -4 18 7 21 14 7 14 -6 0 -13 -4 -16 -10z"/>
<path d="M690 492 c0 -12 4 -22 9 -22 10 0 9 26 -2 36 -4 4 -7 -2 -7 -14z"/>
<path d="M744 501 c5 -8 56 -3 56 5 0 2 -14 4 -31 4 -16 0 -28 -4 -25 -9z"/>
<path d="M810 499 c0 -5 5 -7 10 -4 6 3 10 8 10 11 0 2 -4 4 -10 4 -5 0 -10
-5 -10 -11z"/>
<path d="M1145 500 c-3 -5 -1 -10 4 -10 6 0 11 5 11 10 0 6 -2 10 -4 10 -3 0
-8 -4 -11 -10z"/>
<path d="M1313 495 c4 -9 3 -23 -3 -30 -8 -9 -8 -15 0 -20 5 -3 10 -5 11 -3 8
31 7 58 -2 64 -9 5 -10 2 -6 -11z"/>
<path d="M410 485 c-24 -14 -24 -14 -3 -15 12 0 25 5 28 11 11 17 2 18 -25 4z"/>
<path d="M1420 495 c1 -16 39 -82 40 -68 0 7 -9 27 -20 45 -11 18 -20 29 -20
23z"/>
<path d="M567 469 c7 -7 15 -10 18 -7 3 3 -2 9 -12 12 -14 6 -15 5 -6 -5z"/>
<path d="M1271 464 c0 -11 3 -14 6 -6 3 7 2 16 -1 19 -3 4 -6 -2 -5 -13z"/>
<path d="M310 460 c-34 -5 -36 -8 -32 -47 1 -7 11 -13 23 -13 19 0 19 -1 5
-16 -23 -22 -20 -27 7 -10 26 16 52 14 75 -7 15 -13 20 -13 36 -2 28 21 103
30 122 14 13 -10 17 -10 24 1 13 21 6 24 -60 21 -40 -1 -67 3 -83 14 -22 14
-26 14 -37 0 -7 -8 -19 -15 -26 -15 -17 0 -18 27 -2 32 10 4 9 8 -2 19 -10 9
-27 12 -50 9z"/>
<path d="M610 465 c0 -2 9 -9 20 -15 16 -9 18 -8 14 5 -5 13 -34 22 -34 10z"/>
<path d="M1557 456 c-12 -10 -14 -15 -6 -18 7 -2 13 -12 15 -21 3 -21 -24 -22
-47 -2 -15 14 -18 14 -33 0 -12 -12 -28 -15 -55 -12 -22 2 -45 1 -51 -3 -6 -4
12 -10 41 -14 30 -4 60 -12 67 -18 10 -9 20 -7 42 5 37 22 62 13 58 -22 -2
-17 -13 -30 -31 -39 -36 -17 -29 -27 7 -11 31 14 44 54 27 80 -16 26 -15 26
28 22 32 -3 39 0 44 16 6 24 0 31 -25 31 -10 0 -18 5 -18 10 0 15 -42 12 -63
-4z"/>
<path d="M488 453 c7 -3 16 -2 19 1 4 3 -2 6 -13 5 -11 0 -14 -3 -6 -6z"/>
<path d="M1398 442 c9 -10 19 -17 21 -16 6 5 -20 34 -30 34 -5 0 -1 -8 9 -18z"/>
<path d="M1507 449 c7 -7 15 -10 18 -7 3 3 -2 9 -12 12 -14 6 -15 5 -6 -5z"/>
<path d="M675 410 c10 -11 20 -20 23 -20 3 0 -3 9 -13 20 -10 11 -20 20 -23
20 -3 0 3 -9 13 -20z"/>
<path d="M1277 423 c-11 -10 24 -43 45 -43 10 0 18 7 18 15 0 12 -4 13 -19 6
-14 -8 -22 -7 -30 3 -6 7 -8 16 -4 19 3 4 4 7 1 7 -2 0 -8 -3 -11 -7z"/>
<path d="M710 372 c0 -12 19 -26 26 -19 2 2 -2 10 -11 17 -9 8 -15 8 -15 2z"/>
<path d="M600 354 l-25 -15 25 7 c28 7 35 12 29 18 -2 2 -15 -2 -29 -10z"/>
<path d="M645 360 c-3 -5 3 -10 14 -10 12 0 21 5 21 10 0 6 -6 10 -14 10 -8 0
-18 -4 -21 -10z"/>
<path d="M776 355 c4 -8 13 -15 21 -15 13 0 13 3 3 15 -7 8 -16 15 -21 15 -5
0 -6 -7 -3 -15z"/>
<path d="M1255 360 c-3 -5 -13 -6 -23 -3 -9 3 -14 3 -11 -1 14 -15 67 -15 73
0 6 16 -29 20 -39 4z"/>
<path d="M1396 359 c3 -5 14 -9 25 -9 10 0 19 4 19 9 0 5 -11 9 -25 9 -13 0
-22 -4 -19 -9z"/>
<path d="M309 333 c11 -22 71 -58 71 -43 0 5 -10 12 -22 15 -13 4 -31 17 -41
29 l-18 21 10 -22z"/>
<path d="M1120 342 c0 -5 7 -9 15 -9 8 0 15 4 15 9 0 4 -7 8 -15 8 -8 0 -15
-4 -15 -8z"/>
<path d="M399 330 c-1 -5 -1 -19 -1 -30 0 -36 2 -39 23 -35 26 5 26 6 29 25 6
38 -1 50 -25 50 -14 0 -25 -4 -26 -10z"/>
<path d="M520 333 c0 -4 4 -15 10 -23 7 -11 2 -18 -18 -27 l-27 -13 30 6 c36
7 34 5 37 34 2 16 -3 25 -14 28 -10 2 -18 0 -18 -5z"/>
<path d="M735 315 c0 -14 6 -25 14 -25 8 0 11 6 7 16 -3 9 -6 20 -6 25 0 5 -3
9 -7 9 -5 0 -8 -11 -8 -25z"/>
<path d="M1167 325 c-18 -13 -18 -14 1 -24 17 -9 20 -7 18 14 0 14 -1 25 -1
25 0 0 -8 -7 -18 -15z"/>
<path d="M1336 332 c-2 -4 -1 -14 5 -22 7 -12 9 -10 9 8 0 23 -5 28 -14 14z"/>
<path d="M1462 301 c3 -31 7 -36 28 -36 21 0 26 5 28 33 2 17 0 33 -5 33 -52
9 -54 7 -51 -30z"/>
<path d="M574 297 c2 -21 6 -40 10 -44 10 -10 7 50 -3 67 -7 9 -9 2 -7 -23z"/>
<path d="M1235 300 c3 -5 8 -10 11 -10 2 0 4 5 4 10 0 6 -5 10 -11 10 -5 0 -7
-4 -4 -10z"/>
<path d="M1421 303 c3 -18 -2 -27 -9 -17 -5 9 -11 8 -20 -2 -11 -12 -8 -14 18
-14 18 0 29 4 25 10 -3 6 -1 10 5 10 6 0 8 5 5 10 -7 12 -26 14 -24 3z"/>
<path d="M1207 279 c7 -7 15 -10 18 -7 3 3 -2 9 -12 12 -14 6 -15 5 -6 -5z"/>
<path d="M1252 234 c3 -17 21 -21 26 -6 1 5 -4 12 -13 16 -11 4 -15 1 -13 -10z"/>
<path d="M474 226 c11 -9 24 -16 30 -16 12 0 7 5 -24 19 -24 11 -24 11 -6 -3z"/>
<path d="M612 228 c5 -15 48 -18 48 -3 0 6 -11 11 -26 13 -18 3 -25 0 -22 -10z"/>
<path d="M1152 218 c2 -6 10 -14 16 -16 7 -2 10 2 6 12 -7 18 -28 22 -22 4z"/>
<path d="M765 200 c-3 -5 -1 -10 4 -10 6 0 11 5 11 10 0 6 -2 10 -4 10 -3 0
-8 -4 -11 -10z"/>
<path d="M550 190 c-17 -5 -19 -8 -7 -9 9 -1 17 -5 17 -11 0 -5 7 -10 15 -10
8 0 15 9 15 20 0 22 -2 22 -40 10z"/>
</g>
</svg>
